<mxfile host="app.diagrams.net" agent="Mozilla/5.0 (Windows NT 10.0; Win64; x64) AppleWebKit/537.36 (KHTML, like Gecko) Chrome/132.0.0.0 Safari/537.36 OPR/117.0.0.0" version="26.1.0">
  <diagram name="Страница — 1" id="YVIn6Rrw_dK8ASXMHT1D">
    <mxGraphModel dx="1306" dy="1803" grid="0" gridSize="10" guides="1" tooltips="1" connect="1" arrows="1" fold="1" page="1" pageScale="1" pageWidth="827" pageHeight="1169" math="0" shadow="0">
      <root>
        <mxCell id="0" />
        <mxCell id="1" parent="0" />
        <mxCell id="14NZOn9xJIZSvei-lq5d-1" value="Авторизованный&lt;div&gt;пользователь&lt;/div&gt;" style="shape=umlActor;verticalLabelPosition=bottom;verticalAlign=top;html=1;outlineConnect=0;" vertex="1" parent="1">
          <mxGeometry x="130" y="420" width="30" height="60" as="geometry" />
        </mxCell>
        <mxCell id="14NZOn9xJIZSvei-lq5d-3" value="Неавторизованный&lt;div&gt;пользователь&lt;/div&gt;" style="shape=umlActor;verticalLabelPosition=bottom;verticalAlign=top;html=1;outlineConnect=0;" vertex="1" parent="1">
          <mxGeometry x="160" y="260" width="30" height="60" as="geometry" />
        </mxCell>
        <mxCell id="14NZOn9xJIZSvei-lq5d-4" value="Регистрация" style="ellipse;whiteSpace=wrap;html=1;" vertex="1" parent="1">
          <mxGeometry x="250" y="260" width="100" height="40" as="geometry" />
        </mxCell>
        <mxCell id="14NZOn9xJIZSvei-lq5d-6" value="" style="endArrow=classic;html=1;rounded=0;exitX=1;exitY=0.3333333333333333;exitDx=0;exitDy=0;exitPerimeter=0;entryX=0;entryY=0.5;entryDx=0;entryDy=0;" edge="1" parent="1" source="14NZOn9xJIZSvei-lq5d-3" target="14NZOn9xJIZSvei-lq5d-4">
          <mxGeometry width="50" height="50" relative="1" as="geometry">
            <mxPoint x="370" y="430" as="sourcePoint" />
            <mxPoint x="420" y="380" as="targetPoint" />
          </mxGeometry>
        </mxCell>
        <mxCell id="14NZOn9xJIZSvei-lq5d-9" value="Прохождение тестирования" style="ellipse;whiteSpace=wrap;html=1;" vertex="1" parent="1">
          <mxGeometry x="260" y="410" width="110" height="40" as="geometry" />
        </mxCell>
        <mxCell id="14NZOn9xJIZSvei-lq5d-10" value="" style="endArrow=classic;html=1;rounded=0;exitX=1;exitY=0.3333333333333333;exitDx=0;exitDy=0;exitPerimeter=0;entryX=0;entryY=0.5;entryDx=0;entryDy=0;" edge="1" parent="1" source="14NZOn9xJIZSvei-lq5d-1" target="14NZOn9xJIZSvei-lq5d-9">
          <mxGeometry width="50" height="50" relative="1" as="geometry">
            <mxPoint x="370" y="430" as="sourcePoint" />
            <mxPoint x="420" y="380" as="targetPoint" />
          </mxGeometry>
        </mxCell>
        <mxCell id="14NZOn9xJIZSvei-lq5d-11" value="Просмотр таблицы лидеров" style="ellipse;whiteSpace=wrap;html=1;" vertex="1" parent="1">
          <mxGeometry x="260" y="540" width="120" height="50" as="geometry" />
        </mxCell>
        <mxCell id="14NZOn9xJIZSvei-lq5d-12" value="" style="endArrow=classic;html=1;rounded=0;exitX=1;exitY=0.3333333333333333;exitDx=0;exitDy=0;exitPerimeter=0;entryX=0;entryY=0.5;entryDx=0;entryDy=0;" edge="1" parent="1" source="14NZOn9xJIZSvei-lq5d-1" target="14NZOn9xJIZSvei-lq5d-11">
          <mxGeometry width="50" height="50" relative="1" as="geometry">
            <mxPoint x="370" y="430" as="sourcePoint" />
            <mxPoint x="420" y="380" as="targetPoint" />
          </mxGeometry>
        </mxCell>
        <mxCell id="14NZOn9xJIZSvei-lq5d-13" value="Просмотр результатов пройденного теста" style="ellipse;whiteSpace=wrap;html=1;" vertex="1" parent="1">
          <mxGeometry x="260" y="470" width="140" height="50" as="geometry" />
        </mxCell>
        <mxCell id="14NZOn9xJIZSvei-lq5d-14" value="" style="endArrow=classic;html=1;rounded=0;exitX=1;exitY=0.3333333333333333;exitDx=0;exitDy=0;exitPerimeter=0;entryX=0;entryY=0.5;entryDx=0;entryDy=0;" edge="1" parent="1" source="14NZOn9xJIZSvei-lq5d-1" target="14NZOn9xJIZSvei-lq5d-13">
          <mxGeometry width="50" height="50" relative="1" as="geometry">
            <mxPoint x="370" y="430" as="sourcePoint" />
            <mxPoint x="420" y="380" as="targetPoint" />
          </mxGeometry>
        </mxCell>
        <mxCell id="14NZOn9xJIZSvei-lq5d-15" value="Авторизация" style="ellipse;whiteSpace=wrap;html=1;" vertex="1" parent="1">
          <mxGeometry x="260" y="350" width="120" height="40" as="geometry" />
        </mxCell>
        <mxCell id="14NZOn9xJIZSvei-lq5d-16" value="" style="endArrow=classic;html=1;rounded=0;exitX=1;exitY=0.3333333333333333;exitDx=0;exitDy=0;exitPerimeter=0;entryX=0;entryY=0.5;entryDx=0;entryDy=0;" edge="1" parent="1" source="14NZOn9xJIZSvei-lq5d-1" target="14NZOn9xJIZSvei-lq5d-15">
          <mxGeometry width="50" height="50" relative="1" as="geometry">
            <mxPoint x="310" y="420" as="sourcePoint" />
            <mxPoint x="360" y="370" as="targetPoint" />
          </mxGeometry>
        </mxCell>
        <mxCell id="14NZOn9xJIZSvei-lq5d-17" value="include" style="endArrow=classic;html=1;rounded=0;entryX=1;entryY=0.5;entryDx=0;entryDy=0;exitX=0;exitY=0.5;exitDx=0;exitDy=0;dashed=1;" edge="1" parent="1" source="14NZOn9xJIZSvei-lq5d-18" target="14NZOn9xJIZSvei-lq5d-4">
          <mxGeometry width="50" height="50" relative="1" as="geometry">
            <mxPoint x="310" y="420" as="sourcePoint" />
            <mxPoint x="360" y="370" as="targetPoint" />
          </mxGeometry>
        </mxCell>
        <mxCell id="14NZOn9xJIZSvei-lq5d-18" value="Заполнение полей" style="ellipse;whiteSpace=wrap;html=1;" vertex="1" parent="1">
          <mxGeometry x="420" y="250" width="90" height="40" as="geometry" />
        </mxCell>
        <mxCell id="14NZOn9xJIZSvei-lq5d-19" value="include" style="endArrow=classic;html=1;rounded=0;entryX=1;entryY=0.5;entryDx=0;entryDy=0;exitX=0;exitY=0.5;exitDx=0;exitDy=0;dashed=1;" edge="1" parent="1" source="14NZOn9xJIZSvei-lq5d-20" target="14NZOn9xJIZSvei-lq5d-15">
          <mxGeometry width="50" height="50" relative="1" as="geometry">
            <mxPoint x="240" y="420" as="sourcePoint" />
            <mxPoint x="290" y="370" as="targetPoint" />
          </mxGeometry>
        </mxCell>
        <mxCell id="14NZOn9xJIZSvei-lq5d-20" value="Ввод логина и пароля" style="ellipse;whiteSpace=wrap;html=1;" vertex="1" parent="1">
          <mxGeometry x="440" y="320" width="90" height="50" as="geometry" />
        </mxCell>
        <mxCell id="14NZOn9xJIZSvei-lq5d-21" value="Пользователь" style="swimlane;whiteSpace=wrap" vertex="1" parent="1">
          <mxGeometry x="809" y="126" width="280" height="660" as="geometry" />
        </mxCell>
        <mxCell id="14NZOn9xJIZSvei-lq5d-22" value="" style="ellipse;html=1;shape=startState;fillColor=#000000;strokeColor=#ff0000;" vertex="1" parent="14NZOn9xJIZSvei-lq5d-21">
          <mxGeometry x="125" y="40" width="30" height="30" as="geometry" />
        </mxCell>
        <mxCell id="14NZOn9xJIZSvei-lq5d-23" value="" style="edgeStyle=orthogonalEdgeStyle;html=1;verticalAlign=bottom;endArrow=open;endSize=8;strokeColor=#000000;rounded=0;" edge="1" parent="14NZOn9xJIZSvei-lq5d-21" source="14NZOn9xJIZSvei-lq5d-22">
          <mxGeometry relative="1" as="geometry">
            <mxPoint x="140" y="98" as="targetPoint" />
          </mxGeometry>
        </mxCell>
        <mxCell id="14NZOn9xJIZSvei-lq5d-24" value="Авторизация" style="html=1;whiteSpace=wrap;rounded=1;" vertex="1" parent="14NZOn9xJIZSvei-lq5d-21">
          <mxGeometry x="85" y="98" width="110" height="50" as="geometry" />
        </mxCell>
        <mxCell id="14NZOn9xJIZSvei-lq5d-28" style="edgeStyle=orthogonalEdgeStyle;rounded=0;orthogonalLoop=1;jettySize=auto;html=1;entryX=0.5;entryY=0;entryDx=0;entryDy=0;" edge="1" parent="14NZOn9xJIZSvei-lq5d-21" source="14NZOn9xJIZSvei-lq5d-29" target="14NZOn9xJIZSvei-lq5d-30">
          <mxGeometry relative="1" as="geometry" />
        </mxCell>
        <mxCell id="14NZOn9xJIZSvei-lq5d-29" value="Выход из системы" style="whiteSpace=wrap;html=1;rounded=1;" vertex="1" parent="14NZOn9xJIZSvei-lq5d-21">
          <mxGeometry x="80" y="530" width="120" height="60" as="geometry" />
        </mxCell>
        <mxCell id="14NZOn9xJIZSvei-lq5d-30" value="" style="ellipse;html=1;shape=endState;fillColor=#000000;strokeColor=#ff0000;" vertex="1" parent="14NZOn9xJIZSvei-lq5d-21">
          <mxGeometry x="125" y="625" width="30" height="30" as="geometry" />
        </mxCell>
        <mxCell id="14NZOn9xJIZSvei-lq5d-62" value="Прохождение тестирования" style="rounded=1;whiteSpace=wrap;html=1;" vertex="1" parent="14NZOn9xJIZSvei-lq5d-21">
          <mxGeometry x="87.5" y="290" width="105" height="50" as="geometry" />
        </mxCell>
        <mxCell id="14NZOn9xJIZSvei-lq5d-71" value="Открытие таблицы лидеров" style="rounded=1;whiteSpace=wrap;html=1;" vertex="1" parent="14NZOn9xJIZSvei-lq5d-21">
          <mxGeometry x="87.5" y="370" width="102.5" height="40" as="geometry" />
        </mxCell>
        <mxCell id="14NZOn9xJIZSvei-lq5d-31" value="Система" style="swimlane;whiteSpace=wrap" vertex="1" parent="1">
          <mxGeometry x="1089" y="126" width="280" height="660" as="geometry" />
        </mxCell>
        <mxCell id="14NZOn9xJIZSvei-lq5d-53" value="Ввод логина и пароля" style="whiteSpace=wrap;html=1;rounded=1;" vertex="1" parent="14NZOn9xJIZSvei-lq5d-31">
          <mxGeometry x="85" y="96" width="110" height="52" as="geometry" />
        </mxCell>
        <mxCell id="14NZOn9xJIZSvei-lq5d-61" style="edgeStyle=orthogonalEdgeStyle;rounded=0;orthogonalLoop=1;jettySize=auto;html=1;entryX=0.5;entryY=1;entryDx=0;entryDy=0;" edge="1" parent="14NZOn9xJIZSvei-lq5d-31" source="14NZOn9xJIZSvei-lq5d-60" target="14NZOn9xJIZSvei-lq5d-53">
          <mxGeometry relative="1" as="geometry" />
        </mxCell>
        <mxCell id="14NZOn9xJIZSvei-lq5d-60" value="Вывод сообщения" style="rounded=1;whiteSpace=wrap;html=1;" vertex="1" parent="14NZOn9xJIZSvei-lq5d-31">
          <mxGeometry x="85" y="195" width="110" height="45" as="geometry" />
        </mxCell>
        <mxCell id="14NZOn9xJIZSvei-lq5d-65" value="Отправка теста на проверку" style="rounded=1;whiteSpace=wrap;html=1;" vertex="1" parent="14NZOn9xJIZSvei-lq5d-31">
          <mxGeometry x="90" y="295" width="105" height="40" as="geometry" />
        </mxCell>
        <mxCell id="14NZOn9xJIZSvei-lq5d-68" value="Вывод результата теста" style="rounded=1;whiteSpace=wrap;html=1;" vertex="1" parent="14NZOn9xJIZSvei-lq5d-31">
          <mxGeometry x="90" y="370" width="105" height="40" as="geometry" />
        </mxCell>
        <mxCell id="14NZOn9xJIZSvei-lq5d-72" value="Вывод таблицы на экран" style="rounded=1;whiteSpace=wrap;html=1;" vertex="1" parent="14NZOn9xJIZSvei-lq5d-31">
          <mxGeometry x="90" y="450" width="105" height="50" as="geometry" />
        </mxCell>
        <mxCell id="14NZOn9xJIZSvei-lq5d-37" value="База данных" style="swimlane;whiteSpace=wrap" vertex="1" parent="1">
          <mxGeometry x="1369" y="126" width="280" height="660" as="geometry" />
        </mxCell>
        <mxCell id="14NZOn9xJIZSvei-lq5d-58" style="edgeStyle=orthogonalEdgeStyle;rounded=0;orthogonalLoop=1;jettySize=auto;html=1;entryX=0.5;entryY=0;entryDx=0;entryDy=0;" edge="1" parent="14NZOn9xJIZSvei-lq5d-37" source="14NZOn9xJIZSvei-lq5d-55" target="14NZOn9xJIZSvei-lq5d-57">
          <mxGeometry relative="1" as="geometry" />
        </mxCell>
        <mxCell id="14NZOn9xJIZSvei-lq5d-55" value="Проверка на соответствие" style="whiteSpace=wrap;html=1;rounded=1;" vertex="1" parent="14NZOn9xJIZSvei-lq5d-37">
          <mxGeometry x="80" y="96" width="120" height="52" as="geometry" />
        </mxCell>
        <mxCell id="14NZOn9xJIZSvei-lq5d-57" value="" style="rhombus;whiteSpace=wrap;html=1;" vertex="1" parent="14NZOn9xJIZSvei-lq5d-37">
          <mxGeometry x="110" y="190" width="60" height="55" as="geometry" />
        </mxCell>
        <mxCell id="14NZOn9xJIZSvei-lq5d-67" value="Проверка данных" style="rounded=1;whiteSpace=wrap;html=1;" vertex="1" parent="14NZOn9xJIZSvei-lq5d-37">
          <mxGeometry x="90" y="292.5" width="100" height="45" as="geometry" />
        </mxCell>
        <mxCell id="14NZOn9xJIZSvei-lq5d-54" value="" style="edgeStyle=orthogonalEdgeStyle;rounded=0;orthogonalLoop=1;jettySize=auto;html=1;" edge="1" parent="1" source="14NZOn9xJIZSvei-lq5d-24" target="14NZOn9xJIZSvei-lq5d-53">
          <mxGeometry relative="1" as="geometry" />
        </mxCell>
        <mxCell id="14NZOn9xJIZSvei-lq5d-56" value="" style="edgeStyle=orthogonalEdgeStyle;rounded=0;orthogonalLoop=1;jettySize=auto;html=1;" edge="1" parent="1" source="14NZOn9xJIZSvei-lq5d-53" target="14NZOn9xJIZSvei-lq5d-55">
          <mxGeometry relative="1" as="geometry" />
        </mxCell>
        <mxCell id="14NZOn9xJIZSvei-lq5d-59" value="Совпадений нет" style="edgeStyle=orthogonalEdgeStyle;rounded=0;orthogonalLoop=1;jettySize=auto;html=1;" edge="1" parent="1" source="14NZOn9xJIZSvei-lq5d-57" target="14NZOn9xJIZSvei-lq5d-60">
          <mxGeometry relative="1" as="geometry">
            <mxPoint x="1279" y="343.5" as="targetPoint" />
          </mxGeometry>
        </mxCell>
        <mxCell id="14NZOn9xJIZSvei-lq5d-63" value="Совпадения есть" style="edgeStyle=orthogonalEdgeStyle;rounded=0;orthogonalLoop=1;jettySize=auto;html=1;entryX=0.5;entryY=0;entryDx=0;entryDy=0;" edge="1" parent="1" source="14NZOn9xJIZSvei-lq5d-57" target="14NZOn9xJIZSvei-lq5d-62">
          <mxGeometry relative="1" as="geometry">
            <Array as="points">
              <mxPoint x="1509" y="396" />
              <mxPoint x="949" y="396" />
            </Array>
          </mxGeometry>
        </mxCell>
        <mxCell id="14NZOn9xJIZSvei-lq5d-64" style="edgeStyle=orthogonalEdgeStyle;rounded=0;orthogonalLoop=1;jettySize=auto;html=1;" edge="1" parent="1" source="14NZOn9xJIZSvei-lq5d-62" target="14NZOn9xJIZSvei-lq5d-65">
          <mxGeometry relative="1" as="geometry">
            <mxPoint x="1169" y="441" as="targetPoint" />
          </mxGeometry>
        </mxCell>
        <mxCell id="14NZOn9xJIZSvei-lq5d-66" style="edgeStyle=orthogonalEdgeStyle;rounded=0;orthogonalLoop=1;jettySize=auto;html=1;" edge="1" parent="1" source="14NZOn9xJIZSvei-lq5d-65" target="14NZOn9xJIZSvei-lq5d-67">
          <mxGeometry relative="1" as="geometry">
            <mxPoint x="1469" y="441" as="targetPoint" />
          </mxGeometry>
        </mxCell>
        <mxCell id="14NZOn9xJIZSvei-lq5d-69" style="edgeStyle=orthogonalEdgeStyle;rounded=0;orthogonalLoop=1;jettySize=auto;html=1;entryX=1;entryY=0.5;entryDx=0;entryDy=0;" edge="1" parent="1" source="14NZOn9xJIZSvei-lq5d-67" target="14NZOn9xJIZSvei-lq5d-68">
          <mxGeometry relative="1" as="geometry">
            <Array as="points">
              <mxPoint x="1509" y="516" />
            </Array>
          </mxGeometry>
        </mxCell>
        <mxCell id="14NZOn9xJIZSvei-lq5d-70" style="edgeStyle=orthogonalEdgeStyle;rounded=0;orthogonalLoop=1;jettySize=auto;html=1;" edge="1" parent="1" source="14NZOn9xJIZSvei-lq5d-68" target="14NZOn9xJIZSvei-lq5d-71">
          <mxGeometry relative="1" as="geometry">
            <mxPoint x="999" y="516" as="targetPoint" />
          </mxGeometry>
        </mxCell>
        <mxCell id="14NZOn9xJIZSvei-lq5d-73" style="edgeStyle=orthogonalEdgeStyle;rounded=0;orthogonalLoop=1;jettySize=auto;html=1;entryX=0;entryY=0.5;entryDx=0;entryDy=0;" edge="1" parent="1" source="14NZOn9xJIZSvei-lq5d-71" target="14NZOn9xJIZSvei-lq5d-72">
          <mxGeometry relative="1" as="geometry">
            <Array as="points">
              <mxPoint x="948" y="601" />
            </Array>
          </mxGeometry>
        </mxCell>
        <mxCell id="14NZOn9xJIZSvei-lq5d-74" style="edgeStyle=orthogonalEdgeStyle;rounded=0;orthogonalLoop=1;jettySize=auto;html=1;entryX=0.5;entryY=0;entryDx=0;entryDy=0;" edge="1" parent="1" source="14NZOn9xJIZSvei-lq5d-72" target="14NZOn9xJIZSvei-lq5d-29">
          <mxGeometry relative="1" as="geometry">
            <Array as="points">
              <mxPoint x="1231" y="636" />
              <mxPoint x="949" y="636" />
            </Array>
          </mxGeometry>
        </mxCell>
        <mxCell id="14NZOn9xJIZSvei-lq5d-79" value="Пользователь" style="swimlane;fontStyle=1;align=center;verticalAlign=top;childLayout=stackLayout;horizontal=1;startSize=26;horizontalStack=0;resizeParent=1;resizeParentMax=0;resizeLast=0;collapsible=1;marginBottom=0;whiteSpace=wrap;html=1;" vertex="1" parent="1">
          <mxGeometry x="18" y="-1142" width="308" height="203" as="geometry" />
        </mxCell>
        <mxCell id="14NZOn9xJIZSvei-lq5d-80" value="- login&lt;div&gt;- password&lt;/div&gt;&lt;div&gt;- ID&lt;/div&gt;&lt;div&gt;&lt;br&gt;&lt;/div&gt;" style="text;strokeColor=none;fillColor=none;align=left;verticalAlign=top;spacingLeft=4;spacingRight=4;overflow=hidden;rotatable=0;points=[[0,0.5],[1,0.5]];portConstraint=eastwest;whiteSpace=wrap;html=1;" vertex="1" parent="14NZOn9xJIZSvei-lq5d-79">
          <mxGeometry y="26" width="308" height="55" as="geometry" />
        </mxCell>
        <mxCell id="14NZOn9xJIZSvei-lq5d-81" value="" style="line;strokeWidth=1;fillColor=none;align=left;verticalAlign=middle;spacingTop=-1;spacingLeft=3;spacingRight=3;rotatable=0;labelPosition=right;points=[];portConstraint=eastwest;strokeColor=inherit;" vertex="1" parent="14NZOn9xJIZSvei-lq5d-79">
          <mxGeometry y="81" width="308" height="8" as="geometry" />
        </mxCell>
        <mxCell id="14NZOn9xJIZSvei-lq5d-82" value="+ Авторизоваться ()&lt;div&gt;+ Зарегистрироваться ()&lt;/div&gt;&lt;div&gt;+ Начать_тест ()&lt;/div&gt;&lt;div&gt;+ Ответить_на_вопрос ()&lt;/div&gt;&lt;div&gt;+ Завершить_тест ()&lt;/div&gt;&lt;div&gt;+ Просмотреть_результаты ()&lt;/div&gt;&lt;div&gt;+ Выйти_из_системы ()&lt;/div&gt;" style="text;strokeColor=none;fillColor=none;align=left;verticalAlign=top;spacingLeft=4;spacingRight=4;overflow=hidden;rotatable=0;points=[[0,0.5],[1,0.5]];portConstraint=eastwest;whiteSpace=wrap;html=1;" vertex="1" parent="14NZOn9xJIZSvei-lq5d-79">
          <mxGeometry y="89" width="308" height="114" as="geometry" />
        </mxCell>
        <mxCell id="14NZOn9xJIZSvei-lq5d-88" value="Вопрос" style="swimlane;fontStyle=1;align=center;verticalAlign=top;childLayout=stackLayout;horizontal=1;startSize=26;horizontalStack=0;resizeParent=1;resizeParentMax=0;resizeLast=0;collapsible=1;marginBottom=0;whiteSpace=wrap;html=1;" vertex="1" parent="1">
          <mxGeometry x="384" y="-1142" width="308" height="163" as="geometry" />
        </mxCell>
        <mxCell id="14NZOn9xJIZSvei-lq5d-89" value="&lt;div&gt;- ID_вопроса&lt;/div&gt;&lt;div&gt;- Текст_вопроса&lt;/div&gt;&lt;div&gt;- Варианты_ответов&lt;/div&gt;&lt;div&gt;- Правильный ответ&lt;/div&gt;" style="text;strokeColor=none;fillColor=none;align=left;verticalAlign=top;spacingLeft=4;spacingRight=4;overflow=hidden;rotatable=0;points=[[0,0.5],[1,0.5]];portConstraint=eastwest;whiteSpace=wrap;html=1;" vertex="1" parent="14NZOn9xJIZSvei-lq5d-88">
          <mxGeometry y="26" width="308" height="68" as="geometry" />
        </mxCell>
        <mxCell id="14NZOn9xJIZSvei-lq5d-90" value="" style="line;strokeWidth=1;fillColor=none;align=left;verticalAlign=middle;spacingTop=-1;spacingLeft=3;spacingRight=3;rotatable=0;labelPosition=right;points=[];portConstraint=eastwest;strokeColor=inherit;" vertex="1" parent="14NZOn9xJIZSvei-lq5d-88">
          <mxGeometry y="94" width="308" height="8" as="geometry" />
        </mxCell>
        <mxCell id="14NZOn9xJIZSvei-lq5d-91" value="+ Добавить_вариант_ответа ()&lt;div&gt;+ Удалить_вариант_ответа ()&lt;/div&gt;&lt;div&gt;+ Выбрать_вариант_ответа ()&lt;/div&gt;" style="text;strokeColor=none;fillColor=none;align=left;verticalAlign=top;spacingLeft=4;spacingRight=4;overflow=hidden;rotatable=0;points=[[0,0.5],[1,0.5]];portConstraint=eastwest;whiteSpace=wrap;html=1;" vertex="1" parent="14NZOn9xJIZSvei-lq5d-88">
          <mxGeometry y="102" width="308" height="61" as="geometry" />
        </mxCell>
        <mxCell id="14NZOn9xJIZSvei-lq5d-92" value="Пользователь" style="rounded=0;whiteSpace=wrap;html=1;" vertex="1" parent="1">
          <mxGeometry x="949" y="-974" width="120" height="60" as="geometry" />
        </mxCell>
        <mxCell id="14NZOn9xJIZSvei-lq5d-93" value="" style="endArrow=none;html=1;rounded=0;exitX=1;exitY=0.5;exitDx=0;exitDy=0;entryX=0;entryY=0.5;entryDx=0;entryDy=0;" edge="1" parent="1" source="14NZOn9xJIZSvei-lq5d-92" target="14NZOn9xJIZSvei-lq5d-94">
          <mxGeometry width="50" height="50" relative="1" as="geometry">
            <mxPoint x="1109" y="-936" as="sourcePoint" />
            <mxPoint x="1179" y="-1016" as="targetPoint" />
          </mxGeometry>
        </mxCell>
        <mxCell id="14NZOn9xJIZSvei-lq5d-94" value="Тест" style="rounded=0;whiteSpace=wrap;html=1;" vertex="1" parent="1">
          <mxGeometry x="1191" y="-1046" width="120" height="60" as="geometry" />
        </mxCell>
        <mxCell id="14NZOn9xJIZSvei-lq5d-95" value="" style="endArrow=classic;html=1;rounded=0;" edge="1" parent="1">
          <mxGeometry width="50" height="50" relative="1" as="geometry">
            <mxPoint x="1099" y="-974" as="sourcePoint" />
            <mxPoint x="1149" y="-1006" as="targetPoint" />
          </mxGeometry>
        </mxCell>
        <mxCell id="14NZOn9xJIZSvei-lq5d-96" value="1: Решает" style="text;html=1;align=center;verticalAlign=middle;resizable=0;points=[];autosize=1;strokeColor=none;fillColor=none;" vertex="1" parent="1">
          <mxGeometry x="1052" y="-1024" width="74" height="26" as="geometry" />
        </mxCell>
        <mxCell id="14NZOn9xJIZSvei-lq5d-97" value="Система" style="rounded=0;whiteSpace=wrap;html=1;" vertex="1" parent="1">
          <mxGeometry x="1399" y="-963.5" width="120" height="60" as="geometry" />
        </mxCell>
        <mxCell id="14NZOn9xJIZSvei-lq5d-98" value="" style="endArrow=none;html=1;rounded=0;exitX=1;exitY=0.5;exitDx=0;exitDy=0;entryX=0;entryY=0.5;entryDx=0;entryDy=0;" edge="1" parent="1" source="14NZOn9xJIZSvei-lq5d-94" target="14NZOn9xJIZSvei-lq5d-97">
          <mxGeometry width="50" height="50" relative="1" as="geometry">
            <mxPoint x="1079" y="-934" as="sourcePoint" />
            <mxPoint x="1201" y="-1006" as="targetPoint" />
          </mxGeometry>
        </mxCell>
        <mxCell id="14NZOn9xJIZSvei-lq5d-99" value="" style="endArrow=classic;html=1;rounded=0;" edge="1" parent="1">
          <mxGeometry width="50" height="50" relative="1" as="geometry">
            <mxPoint x="1339" y="-1016" as="sourcePoint" />
            <mxPoint x="1379" y="-976" as="targetPoint" />
          </mxGeometry>
        </mxCell>
        <mxCell id="14NZOn9xJIZSvei-lq5d-100" value="2: Отправляет" style="text;html=1;align=center;verticalAlign=middle;resizable=0;points=[];autosize=1;strokeColor=none;fillColor=none;" vertex="1" parent="1">
          <mxGeometry x="1349" y="-1026" width="100" height="30" as="geometry" />
        </mxCell>
        <mxCell id="14NZOn9xJIZSvei-lq5d-101" value="База данных" style="rounded=0;whiteSpace=wrap;html=1;" vertex="1" parent="1">
          <mxGeometry x="1399" y="-801" width="120" height="60" as="geometry" />
        </mxCell>
        <mxCell id="14NZOn9xJIZSvei-lq5d-102" value="" style="endArrow=none;html=1;rounded=0;exitX=0.5;exitY=1;exitDx=0;exitDy=0;entryX=0.5;entryY=0;entryDx=0;entryDy=0;" edge="1" parent="1" source="14NZOn9xJIZSvei-lq5d-97" target="14NZOn9xJIZSvei-lq5d-101">
          <mxGeometry width="50" height="50" relative="1" as="geometry">
            <mxPoint x="1379" y="-906" as="sourcePoint" />
            <mxPoint x="1429" y="-956" as="targetPoint" />
          </mxGeometry>
        </mxCell>
        <mxCell id="14NZOn9xJIZSvei-lq5d-103" value="" style="endArrow=classic;html=1;rounded=0;" edge="1" parent="1">
          <mxGeometry width="50" height="50" relative="1" as="geometry">
            <mxPoint x="1469" y="-886" as="sourcePoint" />
            <mxPoint x="1469" y="-836" as="targetPoint" />
          </mxGeometry>
        </mxCell>
        <mxCell id="14NZOn9xJIZSvei-lq5d-104" value="3: Передает на проверку" style="text;html=1;align=center;verticalAlign=middle;resizable=0;points=[];autosize=1;strokeColor=none;fillColor=none;" vertex="1" parent="1">
          <mxGeometry x="1469" y="-873.5" width="160" height="30" as="geometry" />
        </mxCell>
        <mxCell id="14NZOn9xJIZSvei-lq5d-105" value="Тест" style="rounded=0;whiteSpace=wrap;html=1;" vertex="1" parent="1">
          <mxGeometry x="1210" y="-706" width="120" height="60" as="geometry" />
        </mxCell>
        <mxCell id="14NZOn9xJIZSvei-lq5d-106" value="" style="endArrow=none;html=1;rounded=0;exitX=1;exitY=0.5;exitDx=0;exitDy=0;entryX=0.5;entryY=1;entryDx=0;entryDy=0;" edge="1" parent="1" source="14NZOn9xJIZSvei-lq5d-105" target="14NZOn9xJIZSvei-lq5d-101">
          <mxGeometry width="50" height="50" relative="1" as="geometry">
            <mxPoint x="1379" y="-776" as="sourcePoint" />
            <mxPoint x="1429" y="-826" as="targetPoint" />
          </mxGeometry>
        </mxCell>
        <mxCell id="14NZOn9xJIZSvei-lq5d-107" value="" style="endArrow=classic;html=1;rounded=0;" edge="1" parent="1">
          <mxGeometry width="50" height="50" relative="1" as="geometry">
            <mxPoint x="1449" y="-726" as="sourcePoint" />
            <mxPoint x="1364" y="-681" as="targetPoint" />
          </mxGeometry>
        </mxCell>
        <mxCell id="14NZOn9xJIZSvei-lq5d-108" value="4: Проверяет" style="text;html=1;align=center;verticalAlign=middle;resizable=0;points=[];autosize=1;strokeColor=none;fillColor=none;" vertex="1" parent="1">
          <mxGeometry x="1399" y="-701" width="100" height="30" as="geometry" />
        </mxCell>
        <mxCell id="14NZOn9xJIZSvei-lq5d-109" value="Система" style="rounded=0;whiteSpace=wrap;html=1;" vertex="1" parent="1">
          <mxGeometry x="999" y="-801" width="120" height="60" as="geometry" />
        </mxCell>
        <mxCell id="14NZOn9xJIZSvei-lq5d-110" value="" style="endArrow=none;html=1;rounded=0;exitX=0.539;exitY=0.996;exitDx=0;exitDy=0;entryX=0;entryY=0.5;entryDx=0;entryDy=0;exitPerimeter=0;" edge="1" parent="1" source="14NZOn9xJIZSvei-lq5d-109" target="14NZOn9xJIZSvei-lq5d-105">
          <mxGeometry width="50" height="50" relative="1" as="geometry">
            <mxPoint x="1249" y="-776" as="sourcePoint" />
            <mxPoint x="1299" y="-826" as="targetPoint" />
          </mxGeometry>
        </mxCell>
        <mxCell id="14NZOn9xJIZSvei-lq5d-111" value="" style="endArrow=classic;html=1;rounded=0;" edge="1" parent="1">
          <mxGeometry width="50" height="50" relative="1" as="geometry">
            <mxPoint x="1169" y="-686" as="sourcePoint" />
            <mxPoint x="1079" y="-726" as="targetPoint" />
          </mxGeometry>
        </mxCell>
        <mxCell id="14NZOn9xJIZSvei-lq5d-112" value="5: Отправляет результат" style="text;html=1;align=center;verticalAlign=middle;resizable=0;points=[];autosize=1;strokeColor=none;fillColor=none;" vertex="1" parent="1">
          <mxGeometry x="982" y="-696.5" width="155" height="26" as="geometry" />
        </mxCell>
        <mxCell id="14NZOn9xJIZSvei-lq5d-113" value="" style="endArrow=none;html=1;rounded=0;exitX=0.5;exitY=0;exitDx=0;exitDy=0;entryX=0.5;entryY=1;entryDx=0;entryDy=0;" edge="1" parent="1" source="14NZOn9xJIZSvei-lq5d-109" target="14NZOn9xJIZSvei-lq5d-92">
          <mxGeometry width="50" height="50" relative="1" as="geometry">
            <mxPoint x="1249" y="-776" as="sourcePoint" />
            <mxPoint x="1299" y="-826" as="targetPoint" />
          </mxGeometry>
        </mxCell>
        <mxCell id="14NZOn9xJIZSvei-lq5d-114" value="6: Уведомляет пользователя&lt;div&gt;о результате&lt;/div&gt;" style="text;html=1;align=center;verticalAlign=middle;resizable=0;points=[];autosize=1;strokeColor=none;fillColor=none;" vertex="1" parent="1">
          <mxGeometry x="851" y="-866" width="177" height="41" as="geometry" />
        </mxCell>
        <mxCell id="14NZOn9xJIZSvei-lq5d-115" value="" style="endArrow=classic;html=1;rounded=0;" edge="1" parent="1">
          <mxGeometry width="50" height="50" relative="1" as="geometry">
            <mxPoint x="1039" y="-826" as="sourcePoint" />
            <mxPoint x="1009" y="-896" as="targetPoint" />
          </mxGeometry>
        </mxCell>
      </root>
    </mxGraphModel>
  </diagram>
</mxfile>
